<svg xmlns="http://www.w3.org/2000/svg" version="1.1" xmlns:xlink="http://www.w3.org/1999/xlink" xmlns:svgjs="http://svgjs.dev/svgjs" width="2000" height="1999" viewBox="0 0 2000 1999"><g transform="matrix(1,0,0,1,-0.431486880466764,-0.4312711370263287)"><svg viewBox="0 0 343 343" data-background-color="#040046" preserveAspectRatio="xMidYMid meet" height="1999" width="2000" xmlns="http://www.w3.org/2000/svg" xmlns:xlink="http://www.w3.org/1999/xlink"><g id="tight-bounds" transform="matrix(1,0,0,1,0.0740000000000407,0.07400000000001228)"><svg viewBox="0 0 342.85155851775386 342.85155851775386" height="342.85155851775386" width="342.85155851775386"><rect width="342.852" height="342.852" fill="url(#50763683-5dae-4756-a42a-992a3e1ec9c8)" mask="url(#de64af1f-f82c-4677-8620-d681a7f71e50)" data-fill-palette-color="tertiary"></rect><g><svg></svg></g><g><svg viewBox="0 0 342.85155851775386 342.85155851775386" height="342.85155851775386" width="342.85155851775386"><g><path d="M0 171.426c0-94.676 76.75-171.426 171.426-171.426 94.676 0 171.426 76.75 171.426 171.426 0 94.676-76.75 171.426-171.426 171.426-94.676 0-171.426-76.75-171.426-171.426zM171.426 330.768c88.002 0 159.342-71.34 159.342-159.342 0-88.002-71.34-159.342-159.342-159.342-88.002 0-159.342 71.34-159.342 159.342 0 88.002 71.34 159.342 159.342 159.342z" data-fill-palette-color="tertiary" fill="url(#50763683-5dae-4756-a42a-992a3e1ec9c8)" stroke="transparent"></path><ellipse rx="164.56874808852186" ry="164.56874808852186" cx="171.42577925887693" cy="171.42577925887693" fill="url(#50763683-5dae-4756-a42a-992a3e1ec9c8)" stroke="transparent" stroke-width="0" fill-opacity="1" data-fill-palette-color="tertiary"></ellipse></g><g transform="matrix(1,0,0,1,64.84655864529837,104.42801489499078)"><svg viewBox="0 0 213.1584412271571 133.9955287277723" height="133.9955287277723" width="213.1584412271571"><g><svg viewBox="0 0 213.1584412271571 133.9955287277723" height="133.9955287277723" width="213.1584412271571"><g><svg viewBox="0 0 213.1584412271571 133.9955287277723" height="133.9955287277723" width="213.1584412271571"><g id="textblocktransform"><svg viewBox="0 0 213.1584412271571 133.9955287277723" height="133.9955287277723" width="213.1584412271571" id="textblock"><g><svg viewBox="0 0 213.1584412271571 133.9955287277723" height="133.9955287277723" width="213.1584412271571"><g transform="matrix(1,0,0,1,0,0)"><svg width="213.1584412271571" viewBox="3.71 -36.08 58.18 36.57" height="133.9955287277723" data-palette-color="#000000"><path d="M19.56 0.49L19.56 0.49Q14.82 0.49 11.24-1.66 7.67-3.81 5.69-7.9 3.71-11.99 3.71-17.8L3.71-17.8Q3.71-23.61 5.69-27.7 7.67-31.79 11.24-33.94 14.82-36.08 19.56-36.08L19.56-36.08Q21.34-36.08 23.07-35.72 24.8-35.35 26.38-34.61 27.95-33.86 29.25-32.75 30.54-31.64 31.45-30.15 32.35-28.66 32.74-26.78L32.74-26.78 29.32-25.54 28.93-25.54Q28.49-27.51 27.2-29.05 25.9-30.59 24.01-31.46 22.12-32.32 19.87-32.32L19.87-32.32Q17.31-32.32 15.22-31.42 13.13-30.52 11.65-28.7 10.16-26.88 9.35-24.16 8.54-21.44 8.54-17.8L8.54-17.8Q8.54-12.96 9.96-9.73 11.38-6.49 13.93-4.87 16.48-3.25 19.87-3.25L19.87-3.25Q22.12-3.25 24.04-4.14 25.95-5.03 27.27-6.57 28.59-8.11 29.03-10.06L29.03-10.06 29.42-10.06 32.84-8.81Q32.45-6.96 31.53-5.46 30.62-3.96 29.31-2.84 28-1.73 26.43-0.99 24.85-0.24 23.1 0.12 21.34 0.49 19.56 0.49ZM49.61 0.49L49.61 0.49Q46.77 0.49 44.46-0.17 42.14-0.83 40.43-1.89 38.72-2.95 37.72-4.17L37.72-4.17 40.33-6.69 40.65-6.69Q42.38-4.98 44.76-4.13 47.14-3.27 49.58-3.27L49.58-3.27Q52.9-3.27 55.14-4.65 57.37-6.03 57.37-9.38L57.37-9.38Q57.37-11.06 56.76-12.08 56.15-13.11 54.66-13.95 53.17-14.79 50.56-15.87L50.56-15.87 45.6-17.92Q43.16-18.95 41.42-19.95 39.67-20.95 38.75-22.45 37.84-23.95 37.84-26.44L37.84-26.44Q37.84-29.27 38.85-31.14 39.87-33.01 41.6-34.08 43.33-35.16 45.54-35.6 47.75-36.04 50.12-36.04L50.12-36.04Q52.49-36.04 54.59-35.49 56.69-34.94 58.42-33.91 60.15-32.89 61.37-31.47L61.37-31.47 58.84-28.93 58.47-28.93Q57.08-30.54 54.84-31.43 52.61-32.32 49.92-32.32L49.92-32.32Q47.95-32.32 46.27-31.84 44.6-31.35 43.6-30.19 42.6-29.03 42.6-26.95L42.6-26.95Q42.6-25.68 43.05-24.82 43.5-23.95 44.61-23.25 45.73-22.56 47.68-21.75L47.68-21.75 52.68-19.73Q55.59-18.55 57.65-17.37 59.71-16.19 60.8-14.36 61.89-12.52 61.89-9.35L61.89-9.35Q61.89-6.57 60.83-4.68 59.76-2.78 57.98-1.65 56.2-0.51 54.03-0.01 51.85 0.49 49.61 0.49Z" opacity="1" transform="matrix(1,0,0,1,0,0)" fill="#000000" class="wordmark-text-0" data-fill-palette-color="quaternary" id="text-0"></path></svg></g></svg></g></svg></g></svg></g></svg></g></svg></g></svg></g><defs></defs><mask id="de64af1f-f82c-4677-8620-d681a7f71e50"><g id="SvgjsG1777"><svg viewBox="0 0 342.85155851775386 342.85155851775386" height="342.85155851775386" width="342.85155851775386"><g><svg></svg></g><g><svg viewBox="0 0 342.85155851775386 342.85155851775386" height="342.85155851775386" width="342.85155851775386"><g><path d="M0 171.426c0-94.676 76.75-171.426 171.426-171.426 94.676 0 171.426 76.75 171.426 171.426 0 94.676-76.75 171.426-171.426 171.426-94.676 0-171.426-76.75-171.426-171.426zM171.426 330.768c88.002 0 159.342-71.34 159.342-159.342 0-88.002-71.34-159.342-159.342-159.342-88.002 0-159.342 71.34-159.342 159.342 0 88.002 71.34 159.342 159.342 159.342z" fill="white" stroke="transparent"></path><ellipse rx="164.56874808852186" ry="164.56874808852186" cx="171.42577925887693" cy="171.42577925887693" fill="white" stroke="transparent" stroke-width="0" fill-opacity="1"></ellipse></g><g transform="matrix(1,0,0,1,64.84655864529837,104.42801489499078)"><svg viewBox="0 0 213.1584412271571 133.9955287277723" height="133.9955287277723" width="213.1584412271571"><g><svg viewBox="0 0 213.1584412271571 133.9955287277723" height="133.9955287277723" width="213.1584412271571"><g><svg viewBox="0 0 213.1584412271571 133.9955287277723" height="133.9955287277723" width="213.1584412271571"><g id="SvgjsG1776"><svg viewBox="0 0 213.1584412271571 133.9955287277723" height="133.9955287277723" width="213.1584412271571" id="SvgjsSvg1775"><g><svg viewBox="0 0 213.1584412271571 133.9955287277723" height="133.9955287277723" width="213.1584412271571"><g transform="matrix(1,0,0,1,0,0)"><svg width="213.1584412271571" viewBox="3.71 -36.08 58.18 36.57" height="133.9955287277723" data-palette-color="#000000"><path d="M19.56 0.49L19.56 0.49Q14.82 0.49 11.24-1.66 7.67-3.81 5.69-7.9 3.71-11.99 3.71-17.8L3.71-17.8Q3.71-23.61 5.69-27.7 7.67-31.79 11.24-33.94 14.82-36.08 19.56-36.08L19.56-36.08Q21.34-36.08 23.07-35.72 24.8-35.35 26.38-34.61 27.95-33.86 29.25-32.75 30.54-31.64 31.45-30.15 32.35-28.66 32.74-26.78L32.74-26.78 29.32-25.54 28.93-25.54Q28.49-27.51 27.2-29.05 25.9-30.59 24.01-31.46 22.12-32.32 19.87-32.32L19.87-32.32Q17.31-32.32 15.22-31.42 13.13-30.52 11.65-28.7 10.16-26.88 9.35-24.16 8.54-21.44 8.54-17.8L8.54-17.8Q8.54-12.96 9.96-9.73 11.38-6.49 13.93-4.87 16.48-3.25 19.87-3.25L19.87-3.25Q22.12-3.25 24.04-4.14 25.95-5.03 27.27-6.57 28.59-8.11 29.03-10.06L29.03-10.06 29.42-10.06 32.84-8.81Q32.45-6.96 31.53-5.46 30.62-3.96 29.31-2.84 28-1.73 26.43-0.99 24.85-0.24 23.1 0.12 21.34 0.49 19.56 0.49ZM49.61 0.49L49.61 0.49Q46.77 0.49 44.46-0.17 42.14-0.83 40.43-1.89 38.72-2.95 37.72-4.17L37.72-4.17 40.33-6.69 40.65-6.69Q42.38-4.98 44.76-4.13 47.14-3.27 49.58-3.27L49.58-3.27Q52.9-3.27 55.14-4.65 57.37-6.03 57.37-9.38L57.37-9.38Q57.37-11.06 56.76-12.08 56.15-13.11 54.66-13.95 53.17-14.79 50.56-15.87L50.56-15.87 45.6-17.92Q43.16-18.95 41.42-19.95 39.67-20.95 38.75-22.45 37.84-23.95 37.84-26.44L37.84-26.44Q37.84-29.27 38.85-31.14 39.87-33.01 41.6-34.08 43.33-35.16 45.54-35.6 47.75-36.04 50.12-36.04L50.12-36.04Q52.49-36.04 54.59-35.49 56.69-34.94 58.42-33.91 60.15-32.89 61.37-31.47L61.37-31.47 58.84-28.93 58.47-28.93Q57.08-30.54 54.84-31.43 52.61-32.32 49.92-32.32L49.92-32.32Q47.95-32.32 46.27-31.84 44.6-31.35 43.6-30.19 42.6-29.03 42.6-26.95L42.6-26.95Q42.6-25.68 43.05-24.82 43.5-23.95 44.61-23.25 45.73-22.56 47.68-21.75L47.68-21.75 52.68-19.73Q55.59-18.55 57.65-17.37 59.71-16.19 60.8-14.36 61.89-12.52 61.89-9.35L61.89-9.35Q61.89-6.57 60.83-4.68 59.76-2.78 57.98-1.65 56.2-0.51 54.03-0.01 51.85 0.49 49.61 0.49Z" opacity="1" transform="matrix(1,0,0,1,0,0)" fill="black" class="wordmark-text-0" id="SvgjsPath1774"></path></svg></g></svg></g></svg></g></svg></g></svg></g></svg></g></svg></g><defs><mask></mask></defs></svg><rect width="342.85155851775386" height="342.85155851775386" fill="black" stroke="none" visibility="hidden"></rect></g></mask><linearGradient x1="0" x2="1" y1="0.578" y2="0.595" id="50763683-5dae-4756-a42a-992a3e1ec9c8"><stop stop-color="#6ee2f5" offset="0"></stop><stop stop-color="#6454f0" offset="1"></stop></linearGradient></svg><rect width="342.85155851775386" height="342.85155851775386" fill="none" stroke="none" visibility="hidden"></rect></g></svg></g></svg>