<svg xmlns="http://www.w3.org/2000/svg" xml:space="preserve" width="2000" height="558" data-id="lg_rsMADOGXIEeyXajE0p" data-version="1"><g data-padding="20"><g transform="translate(10 10)scale(.96416)"><circle cx="596.955" cy="-115.238" r="265.596" fill="#0e0f11" transform="translate(400 400)scale(1.05)" vector-effect="non-scaling-stroke"/><path fill="#fff" d="M842.823 275.09q0-28.5 11.92-50.84 11.93-22.34 33.85-34.81 21.93-12.48 50.44-12.48 36.18 0 60.85 19.33 24.67 19.32 31.8 52.49h-57.84q-5.21-10.97-14.39-16.72-9.18-5.76-21.24-5.76-18.64 0-29.74 13.3-11.1 13.29-11.1 35.49 0 22.48 11.1 35.77 11.1 13.3 29.74 13.3 12.06 0 21.24-5.76t14.39-16.72h57.84q-7.13 33.17-31.8 52.49t-60.85 19.32q-28.51 0-50.44-12.47-21.92-12.47-33.85-34.81-11.92-22.34-11.92-51.12m283.69 98.95q-33.71 0-55.36-16.03-21.66-16.04-23.3-45.91h57.28q.83 10.14 6.03 14.8 5.21 4.66 13.44 4.66 7.4 0 12.19-3.7 4.8-3.7 4.8-10.28 0-8.5-7.95-13.16t-25.76-10.42q-18.92-6.3-30.57-12.19-11.65-5.9-20.28-17.27-8.63-11.38-8.63-29.74 0-18.64 9.31-31.93 9.32-13.3 25.77-20.15t37.28-6.85q33.71 0 53.86 15.76t21.52 44.27h-58.39q-.27-8.78-5.34-13.16-5.07-4.39-13.02-4.39-6.03 0-9.87 3.57-3.84 3.56-3.84 10.14 0 5.48 4.25 9.45 4.25 3.98 10.55 6.86 6.31 2.88 18.64 7.26 18.37 6.31 30.29 12.47 11.92 6.17 20.56 17.27 8.63 11.1 8.63 28.1 0 17.26-8.63 30.97-8.64 13.7-24.94 21.65-16.31 7.95-38.52 7.95" font-family="Poppins" font-size="274.101"/></g><path fill="transparent" stroke="transparent" d="M721 0h558v558H721z"/></g></svg>